<svg xmlns="http://www.w3.org/2000/svg" width="16" height="16"><path d="M8 0C3.588 0 0 3.588 0 8s3.588 8 8 8 8-3.588 8-8-3.588-8-8-8zm0 1c3.872 0 7 3.128 7 7s-3.128 7-7 7-7-3.128-7-7 3.128-7 7-7zm1.3 3.082a.5.5 0 0 0-.349.857L10.011 6l-1.06 1.063a.5.5 0 1 0 .707.707l1.06-1.061 1.061 1.06a.5.5 0 1 0 .707-.707L11.426 6l1.06-1.06a.5.5 0 0 0-.363-.858.5.5 0 0 0-.344.15l-1.06 1.061-1.06-1.06a.5.5 0 0 0-.358-.151zm-2.613.078a.5.5 0 0 0-.001.002.5.5 0 0 0-.344.152l-1.06 1.061-1.063-1.06a.5.5 0 0 0-.358-.153.5.5 0 0 0-.35.86l1.061 1.06-1.06 1.06a.5.5 0 1 0 .707.708L5.28 6.79l1.06 1.06a.5.5 0 1 0 .708-.707l-1.06-1.061 1.06-1.06a.5.5 0 0 0-.362-.862zM5.95 11A.5.5 0 0 0 6 12h4a.5.5 0 1 0 0-1H6a.5.5 0 0 0-.05 0z" color="#000" font-family="sans-serif" font-weight="400" overflow="visible" style="line-height:normal;text-indent:0;text-align:start;text-decoration-line:none;text-decoration-style:solid;text-decoration-color:#000;text-transform:none;block-progression:tb;white-space:normal;isolation:auto;mix-blend-mode:normal;solid-color:#000;solid-opacity:1"/></svg>